<?xml version="1.0" encoding="iso-8859-1"?>
<!-- Generator: Adobe Illustrator 19.0.0, SVG Export Plug-In . SVG Version: 6.00 Build 0)  -->
<svg version="1.1" id="Capa_1" xmlns="http://www.w3.org/2000/svg" xmlns:xlink="http://www.w3.org/1999/xlink" x="0px" y="0px"
	 viewBox="0 0 512 512" style="enable-background:new 0 0 512 512;" xml:space="preserve">
<path style="fill:#FFF7D5;" d="M392.533,42.667c0-14.14-11.46-25.6-25.6-25.6s-25.6,11.46-25.6,25.6
	c-0.017,6.306,2.33,12.399,6.571,17.067h38.059C390.204,55.066,392.55,48.973,392.533,42.667z"/>
<g>
	<polygon style="fill:#78B9EB;" points="8.533,332.8 51.2,332.8 460.8,332.8 503.467,332.8 503.467,307.2 8.533,307.2 	"/>
	<polygon style="fill:#78B9EB;" points="179.2,119.467 153.6,119.467 119.467,119.467 93.867,119.467 59.733,119.467 8.533,119.467 
		8.533,145.067 503.467,145.067 503.467,119.467 213.333,119.467 	"/>
</g>
<g>
	<rect x="435.2" y="384" style="fill:#FFF7D5;" width="25.6" height="119.467"/>
	<rect x="51.2" y="384" style="fill:#FFF7D5;" width="25.6" height="119.467"/>
	<polygon style="fill:#FFF7D5;" points="51.2,332.8 51.2,384 76.8,384 435.2,384 460.8,384 460.8,332.8 	"/>
	<rect x="59.733" y="8.533" style="fill:#FFF7D5;" width="34.133" height="110.933"/>
	<rect x="119.467" y="8.533" style="fill:#FFF7D5;" width="34.133" height="110.933"/>
	<rect x="179.2" y="8.533" style="fill:#FFF7D5;" width="34.133" height="110.933"/>
	<path style="fill:#FFF7D5;" d="M332.8,93.867c0,4.71,3.823,8.533,8.533,8.533h51.2c4.71,0,8.533-3.823,8.533-8.533V59.733H332.8
		V93.867z"/>
</g>
<g>
	<path style="fill:#231F20;" d="M0,341.333h42.667V512h42.667V392.533h341.333V512h42.667V341.333H512v-42.667H0V341.333z
		 M68.267,494.933h-8.533v-102.4h8.533V494.933z M452.267,494.933h-8.533v-102.4h8.533V494.933z M452.267,375.467H59.733v-34.133
		h392.533V375.467z M17.067,315.733h477.867v8.533H17.067V315.733z"/>
	<path style="fill:#231F20;" d="M392.533,110.933c9.429,0,17.067-7.637,17.067-17.067V51.2h-9.754
		c4.992-18.176-5.692-36.966-23.868-41.958c-18.176-4.992-36.966,5.692-41.958,23.868c-1.63,5.922-1.63,12.169,0,18.091h-9.754
		v42.667c0,9.429,7.637,17.067,17.067,17.067H221.867V0h-51.2v110.933h-8.533V0h-51.2v110.933H102.4V0H51.2v110.933H0V153.6h512
		v-42.667H392.533z M341.333,93.867v-25.6h51.2v25.6H341.333z M349.867,42.667c0-9.429,7.637-17.067,17.067-17.067
		S384,33.237,384,42.667c-0.009,3.004-0.819,5.948-2.338,8.533h-29.457C350.686,48.614,349.875,45.67,349.867,42.667z
		 M187.733,17.067H204.8v93.867h-17.067V17.067z M128,17.067h17.067v93.867H128V17.067z M68.267,17.067h17.067v93.867H68.267V17.067
		z M494.933,136.533H17.067V128h477.867V136.533z"/>
	<rect x="230.4" y="349.867" style="fill:#231F20;" width="51.2" height="17.067"/>
</g>
<g>
</g>
<g>
</g>
<g>
</g>
<g>
</g>
<g>
</g>
<g>
</g>
<g>
</g>
<g>
</g>
<g>
</g>
<g>
</g>
<g>
</g>
<g>
</g>
<g>
</g>
<g>
</g>
<g>
</g>
</svg>
